<svg height='300px' width='300px'  fill="#000000" xmlns="http://www.w3.org/2000/svg" xmlns:xlink="http://www.w3.org/1999/xlink" version="1.1" x="0px" y="0px" viewBox="0 0 100 100" enable-background="new 0 0 100 100" xml:space="preserve"><path d="M67.08,55.589c5.915-4.914,9.69-12.32,9.69-20.594c0-14.761-12.01-26.769-26.771-26.769S23.23,20.234,23.23,34.995  c0,8.273,3.774,15.678,9.687,20.592C20.876,62,13.226,75.224,13.226,90.012c0,0.974,0.788,1.762,1.762,1.762  s1.762-0.788,1.762-1.762c0-14.144,7.64-26.668,19.478-32.103c4.029,2.431,8.731,3.857,13.77,3.857c5.029,0,9.722-1.42,13.747-3.842  c11.857,5.439,19.503,17.906,19.503,32.088c0,0.974,0.788,1.762,1.762,1.762s1.762-0.788,1.762-1.762  C86.774,75.187,79.133,62.006,67.08,55.589z M49.999,58.241c-12.818,0-23.244-10.429-23.244-23.246S37.182,11.75,49.999,11.75  c12.819,0,23.246,10.427,23.246,23.244S62.818,58.241,49.999,58.241z"></path></svg>