<?xml version="1.0" encoding="UTF-8" standalone="no"?>
<!DOCTYPE svg PUBLIC "-//W3C//DTD SVG 1.1//EN"
 "http://www.w3.org/Graphics/SVG/1.1/DTD/svg11.dtd">
<!-- Generated by graphviz version 2.43.0 (0)
 -->
<!-- Title: G Pages: 1 -->
<svg width="1069pt" height="211pt"
 viewBox="0.00 0.00 1068.92 211.00" xmlns="http://www.w3.org/2000/svg" xmlns:xlink="http://www.w3.org/1999/xlink">
<g id="graph0" class="graph" transform="scale(1 1) rotate(0) translate(4 207)">
<title>G</title>
<polygon fill="white" stroke="transparent" points="-4,4 -4,-207 1064.92,-207 1064.92,4 -4,4"/>
<text text-anchor="middle" x="530.46" y="-187.8" font-family="Times,serif" font-size="14.00">registry.k8s.io becoming a mirror diagram</text>
<!-- CheckRequirements -->
<g id="node1" class="node">
<title>CheckRequirements</title>
<ellipse fill="none" stroke="black" cx="104.64" cy="-162" rx="104.78" ry="18"/>
<text text-anchor="middle" x="104.64" y="-158.3" font-family="Times,serif" font-size="14.00">Check requirements</text>
</g>
<!-- SetupRegistry -->
<g id="node2" class="node">
<title>SetupRegistry</title>
<ellipse fill="none" stroke="black" cx="438.64" cy="-162" rx="211.46" ry="18"/>
<text text-anchor="middle" x="438.64" y="-158.3" font-family="Times,serif" font-size="14.00">Set up an OCI compliant container registry</text>
</g>
<!-- MakeAPR -->
<g id="node4" class="node">
<title>MakeAPR</title>
<ellipse fill="none" stroke="black" cx="651.64" cy="-90" rx="60.39" ry="18"/>
<text text-anchor="middle" x="651.64" y="-86.3" font-family="Times,serif" font-size="14.00">Make a PR</text>
</g>
<!-- SetupRegistry&#45;&gt;MakeAPR -->
<g id="edge1" class="edge">
<title>SetupRegistry&#45;&gt;MakeAPR</title>
<path fill="none" stroke="black" d="M488.85,-144.5C523.33,-133.17 568.85,-118.21 602.99,-106.99"/>
<polygon fill="black" stroke="black" points="604.34,-110.23 612.75,-103.78 602.15,-103.58 604.34,-110.23"/>
</g>
<!-- SetupBucket -->
<g id="node3" class="node">
<title>SetupBucket</title>
<ellipse fill="none" stroke="black" cx="864.64" cy="-162" rx="196.07" ry="18"/>
<text text-anchor="middle" x="864.64" y="-158.3" font-family="Times,serif" font-size="14.00">Set up a bucket with public ingress URI</text>
</g>
<!-- SetupBucket&#45;&gt;MakeAPR -->
<g id="edge2" class="edge">
<title>SetupBucket&#45;&gt;MakeAPR</title>
<path fill="none" stroke="black" d="M814.7,-144.59C780.23,-133.26 734.63,-118.27 700.41,-107.03"/>
<polygon fill="black" stroke="black" points="701.23,-103.61 690.63,-103.81 699.04,-110.26 701.23,-103.61"/>
</g>
<!-- RunTests -->
<g id="node5" class="node">
<title>RunTests</title>
<ellipse fill="none" stroke="black" cx="651.64" cy="-18" rx="55.49" ry="18"/>
<text text-anchor="middle" x="651.64" y="-14.3" font-family="Times,serif" font-size="14.00">Run tests</text>
</g>
<!-- MakeAPR&#45;&gt;RunTests -->
<g id="edge3" class="edge">
<title>MakeAPR&#45;&gt;RunTests</title>
<path fill="none" stroke="black" d="M651.64,-71.7C651.64,-63.98 651.64,-54.71 651.64,-46.11"/>
<polygon fill="black" stroke="black" points="655.14,-46.1 651.64,-36.1 648.14,-46.1 655.14,-46.1"/>
</g>
</g>
</svg>
